<?xml version="1.0" standalone="no"?><!DOCTYPE svg PUBLIC "-//W3C//DTD SVG 1.1//EN" "http://www.w3.org/Graphics/SVG/1.1/DTD/svg11.dtd"><svg t="1554187034562" class="icon" style="" viewBox="0 0 1024 1024" version="1.1" xmlns="http://www.w3.org/2000/svg" p-id="974" xmlns:xlink="http://www.w3.org/1999/xlink" width="200" height="200"><defs><style type="text/css"></style></defs><path d="M768 141.312H256a128 128 0 0 0-128 128v512a128 128 0 0 0 128 128h512a128 128 0 0 0 128-128v-512a128 128 0 0 0-128-128z m76.8 640a76.8 76.8 0 0 1-76.8 76.8H256a76.8 76.8 0 0 1-76.8-76.8v-512A76.8 76.8 0 0 1 256 192.512h512a76.8 76.8 0 0 1 76.8 76.8z" fill="" p-id="975"></path></svg>