<?xml version="1.0" standalone="no"?><!DOCTYPE svg PUBLIC "-//W3C//DTD SVG 1.1//EN" "http://www.w3.org/Graphics/SVG/1.1/DTD/svg11.dtd"><svg t="1555143290980" class="icon" style="" viewBox="0 0 1024 1024" version="1.1" xmlns="http://www.w3.org/2000/svg" p-id="3236" xmlns:xlink="http://www.w3.org/1999/xlink" width="200" height="200"><defs><style type="text/css"></style></defs><path d="M538.176 822.832v53.168h26.176a26 26 0 1 1 0 52h-104.72a26 26 0 1 1 0-52h26.176v-53.168A292.8 292.8 0 0 1 224 590h52.368a243.536 243.536 0 0 0 471.28 0H800a292.8 292.8 0 0 1-261.824 232.832zM512 720a182.64 182.64 0 0 1-183.264-182v-260a183.28 183.28 0 0 1 366.544 0v260A182.64 182.64 0 0 1 512 720z m130.912-442a130.912 130.912 0 0 0-261.824 0v260a130.912 130.912 0 0 0 261.824 0v-260z" p-id="3237"></path></svg>